<?xml version="1.0" encoding="UTF-8"?><svg id="_レイヤー_1" xmlns="http://www.w3.org/2000/svg"
  xmlns:xlink="http://www.w3.org/1999/xlink" viewBox="0 0 26 20">
  <defs>
    <style>
      .icon {
        fill: #fff;
        stroke-width: 0px;
      }

      .background {
        fill: #000;
      }
    </style>
  </defs>
  <rect class="background" y="0" width="26" height="20" />
  <path class="icon"
    d="M18.86,12.92c-.13.61-.44,1.1-.94,1.48-.22.18-.47.32-.75.42-.28.1-.57.15-.86.17-.54.05-1.06.1-1.57.12-.52.03-1.03.04-1.54.05-.51,0-1.01,0-1.52-.03-.51-.02-1.03-.05-1.56-.11-.51-.02-1-.15-1.46-.39-.46-.24-.83-.56-1.08-.96-.18-.32-.31-.62-.38-.9-.07-.28-.13-.61-.16-.98-.04-.49-.05-1.07-.05-1.74,0-.67,0-1.06,0-1.18,0-.58.08-1.18.23-1.78.15-.61.51-1.1,1.05-1.48.36-.28.77-.46,1.23-.52.46-.06.92-.11,1.35-.15.37-.03.76-.05,1.15-.05.38-.02.77-.03,1.16-.03s.78,0,1.17.03c.39,0,.78.03,1.18.05.49,0,.99.07,1.5.22.51.15.9.41,1.18.78.3.35.5.76.61,1.23.1.47.15.96.13,1.46h-3.17s0-.1,0-.2c0-.1-.03-.18-.06-.25-.02-.13-.07-.24-.16-.35-.09-.1-.19-.18-.32-.24-.26-.05-.52-.08-.79-.08s-.52,0-.76-.03c-.52,0-1.06,0-1.61,0-.56,0-1.03.05-1.41.14-.29.09-.45.33-.46.7-.02.38-.04.71-.05.99-.02.38-.02.78,0,1.2.02.42.05.84.11,1.26.02.16.06.29.13.4s.18.17.35.19c.5.08,1.09.12,1.76.12.67,0,1.29-.02,1.85-.03.25-.02.52-.04.82-.06.3-.02.51-.16.62-.42.05-.11.09-.24.1-.4,0-.15.01-.31.01-.45l3.17.04c.02.57-.04,1.15-.16,1.76Z" />
</svg>