<svg xmlns="http://www.w3.org/2000/svg" width="89.849" height="17.003" viewBox="0 0 89.849 17.003" class="music"><path id="download" d="M-277.629,301.645c-.749-.187-.936-.562-1.029-1.31a27.213,27.213,0,0,1,0-5.522,1.407,1.407,0,0,1,1.029-1.217,38.045,38.045,0,0,1,7.3,0,1.209,1.209,0,0,1,.842,1.123,18.221,18.221,0,0,1,0,5.522,1.311,1.311,0,0,1-.842,1.123C-270.89,301.832-276.786,301.832-277.629,301.645Zm9.266-12.167a50.721,50.721,0,0,0-11.325,0,5.146,5.146,0,0,0-4.118,3.744,35.329,35.329,0,0,0,0,8.891,4.911,4.911,0,0,0,4.118,3.744,46.546,46.546,0,0,0,11.418-.094,4.893,4.893,0,0,0,3.837-3.65,35.3,35.3,0,0,0,0-8.891A5.162,5.162,0,0,0-268.363,289.478Zm-23.492.094h5.148v16.191h-5.148Zm-8.236,10.014a1.285,1.285,0,0,1,1.03,1.4c0,.562-.094,1.217-1.03,1.31a30,30,0,0,1-5.8,0c-.562-.094-1.217-.094-1.4-1.123V300.9h-5.148a3.013,3.013,0,0,0,.094.749c.187,2.152,1.029,3.65,3.463,4.118a53.449,53.449,0,0,0,11.605,0c2.621-.562,3.276-2.9,3.276-4.96,0-2.34-.842-3.931-2.9-4.586a10.8,10.8,0,0,0-2.434-.281c-.468,0-5.99-.187-7.207-.374-.749-.094-.936-.562-.936-1.217s.094-1.123,1.029-1.31a31.793,31.793,0,0,1,5.99,0,.986.986,0,0,1,.749,1.03v.374h5.148c0-.374-.094-.655-.094-.936a4.174,4.174,0,0,0-4.212-4.118,59.827,59.827,0,0,0-10.108.094c-1.685.374-3.369,1.4-3.369,4.867,0,2.808,1.31,4.212,3.556,4.68.655.094,2.527.187,2.808.187C-305.332,299.305-300.465,299.493-300.091,299.586Zm-20.31-.094h-5.709l2.434-6.458h.842Zm1.123,3.369,1.123,2.9h5.522l-6.926-16.285h-7.487l-6.832,16.285h5.522l1.123-2.995,7.956.094Zm-29.388-2.433c.094.936.562,1.123,1.03,1.217a43.922,43.922,0,0,0,7.019,0,1.4,1.4,0,0,0,1.217-1.123c0-.281.094-.749.094-.936h5.335a20.583,20.583,0,0,1-.094,2.153,4.635,4.635,0,0,1-3.837,4.118,61.09,61.09,0,0,1-11.7,0,5.135,5.135,0,0,1-4.118-3.744,34.582,34.582,0,0,1,0-8.8,5.027,5.027,0,0,1,4.024-3.744c2.153-.374,9.734-.468,11.793,0a4.859,4.859,0,0,1,3.65,3.931,18.412,18.412,0,0,1,.094,1.965h-5.335c0-.374.094-1.4-.842-1.685a57.7,57.7,0,0,0-7.113-.094,1.124,1.124,0,0,0-1.123,1.029A23.388,23.388,0,0,0-348.665,300.429Z" transform="translate(354 -289.161)" fill="#ffffff"></path></svg>