<svg xmlns="http://www.w3.org/2000/svg" width="61.736" height="9.654" viewBox="0 0 61.736 9.654" preserveAspectRatio="none" class="protrek" role="img" aria-label="PROTREK"><g data-name="グループ 3929" fill="#1A1311"><path data-name="パス 467" d="M5.066.106C4.047.082 3.047.239 2.028.258A5.72 5.72 0 00.345.364.664.664 0 000 .995a.678.678 0 00.294.483c.311.137.683.361.658.776L.933 7.096l-.051.458a.424.424 0 01-.049.173c-.163.3-.649.415-.649.82a.744.744 0 00.259.6 4.02 4.02 0 002.478.367l.027-.026c.552-.052 1.2-.183 1.4-.744a.591.591 0 00-.148-.578c-.682-.335-.606-1.216-.572-1.923l.076-.139c.121-.112.328-.043.484-.061a3.1 3.1 0 002.33-.625 3.174 3.174 0 00.935-3.2 2.81 2.81 0 00-2.384-2.1M4.73 3.925a.805.805 0 01-.751.467c-.137-.035-.267-.077-.311-.216a18.07 18.07 0 01-.029-2.157.32.32 0 01.258-.276.833.833 0 01.777.447 2.206 2.206 0 01.056 1.736"></path><path data-name="パス 468" d="M16.229 8.17a.866.866 0 01-.588-.69 4.388 4.388 0 00-.607-2.027c-.19-.318-.553-.413-.795-.706-.052-.13.043-.225.111-.311a2.379 2.379 0 00.853-1.91 3.081 3.081 0 00-.193-1A2.46 2.46 0 0013.55.234a9.174 9.174 0 00-2.667-.082c-.95.105-1.951-.308-2.787.2a.944.944 0 00-.267.4.67.67 0 00.147.638 1.3 1.3 0 01.623 1.2c.046 1.336.023 2.752.024 4.072a2.311 2.311 0 01-.171.95c-.13.294-.44.4-.56.7a.814.814 0 00.259.828 3.59 3.59 0 001.952.4 2.872 2.872 0 001.674-.392.66.66 0 00.2-.621c-.043-.3-.311-.466-.485-.672a4.34 4.34 0 01-.158-1.683c.017-.181.017-.4.181-.492.3-.043.457.206.6.4a13.365 13.365 0 00.85 2.795 1.917 1.917 0 001.8.782c.63-.034 1.38-.208 1.6-.839.026-.216.06-.5-.13-.647m-4.064-4.672a.751.751 0 01-.457.475.522.522 0 01-.345-.06 2.195 2.195 0 01-.061-.863l.05-.966a.469.469 0 01.19-.336.445.445 0 01.44.128 2 2 0 01.183 1.622"></path><path data-name="パス 469" d="M34.054.031a20.51 20.51 0 01-3.8.161h-.155a10.4 10.4 0 01-1.044-.127.854.854 0 00-.82.355 3.406 3.406 0 00-.619 1.253 2.061 2.061 0 00.054 1.587.679.679 0 00.544.3c.6-.009.836-.545 1.13-.968.137-.163.2-.4.448-.39.191.138.2.406.235.639.01 1.312-.049 2.659-.1 3.928a3.5 3.5 0 01-.136.742c-.12.268-.354.346-.6.475a.586.586 0 00-.257.519c.018.457.423.7.8.827a6.609 6.609 0 003.409-.023.937.937 0 00.655-.786.685.685 0 00-.294-.6.99.99 0 01-.657-.948c.015-1.467-.023-2.881.028-4.306a.6.6 0 01.206-.466.315.315 0 01.275.13c.346.464.486 1.207 1.193 1.266a.866.866 0 00.777-.356A2.657 2.657 0 0034.933.56c-.216-.232-.5-.56-.89-.525"></path><path data-name="パス 470" d="M44.671 8.84a.642.642 0 00.609.542c1.769.058 3.391-.048 5.126.044.388-.018.837.214 1.148-.046a3.6 3.6 0 00.723-1.657 1.83 1.83 0 00-.106-1.251.516.516 0 00-.474-.284c-.4.036-.535.476-.681.769a1.688 1.688 0 01-1.716 1 2.972 2.972 0 01-.784-.076c-.19-.069-.26-.285-.312-.457a5.71 5.71 0 010-1.761.36.36 0 01.361-.259c.7.076.364.974.848 1.258a.526.526 0 00.345.017c.517-.321.543-1.029.6-1.624a3.983 3.983 0 00-.383-2.277.518.518 0 00-.552-.129.658.658 0 00-.32.466c-.068.3-.068.7-.4.83a.5.5 0 01-.552-.127 5.815 5.815 0 01-.089-1.511.673.673 0 01.249-.57 2.3 2.3 0 011.406-.028 1.4 1.4 0 011.037.861.642.642 0 00.657.223.751.751 0 00.439-.656 2.433 2.433 0 00-.625-2.036.978.978 0 00-.793.018 36.995 36.995 0 01-4.255.1 7.029 7.029 0 00-.949.044.678.678 0 00-.577.475.707.707 0 00.156.63 1.192 1.192 0 01.65.914 25.9 25.9 0 01.075 4.177 4.573 4.573 0 01-.169 1.4c-.1.284-.354.362-.56.544a.448.448 0 00-.124.432m-.126-.465c-.13-.354-.673-.318-.726-.733a5.345 5.345 0 00-.608-2.088 3.2 3.2 0 00-.846-.723c-.026-.079-.087-.173-.035-.252a3.921 3.921 0 00.689-.785 2.751 2.751 0 00-.177-2.684C42.124.097 40.666.029 39.397.153c-1.07.182-2.184-.273-3.159.152a.776.776 0 00-.4.751.682.682 0 00.372.491 1.375 1.375 0 01.425.966l.016 4.5-.07.389c-.067.578-.853.64-.671 1.3.234.673.985.758 1.615.809a5.823 5.823 0 002.106-.211.7.7 0 00.456-.587c.086-.553-.519-.646-.613-1.086a4.321 4.321 0 01.005-1.856.21.21 0 01.164-.129c.405.008.553.37.7.672.3 1.018.306 2.261 1.161 2.949a2.674 2.674 0 002.468.144.976.976 0 00.592-.623.9.9 0 00-.007-.414m-4.461-4.542a.928.928 0 01-.517.191c-.068-.035-.146-.043-.189-.12a10.507 10.507 0 01.022-1.8l.043-.165c.051-.113.112-.207.242-.207a.685.685 0 01.415.18 1.925 1.925 0 01-.016 1.917"></path><path data-name="パス 471" d="M60.82 7.511c-.718-.922-1.3-1.81-1.981-2.741-.225-.457-.863-.861-.667-1.5a4.5 4.5 0 01.982-1.287c.345-.363.916-.174 1.294-.416.276-.2.232-.57.154-.881a1 1 0 00-.76-.49 5.324 5.324 0 00-.983-.077c-.665.018-1.511.01-1.881.6-.206.3-.007.682.037 1a2.659 2.659 0 01-.878 1.416c-.06-.008-.122.034-.155-.034a1.841 1.841 0 01-.019-.975c.042-.492.681-.726.464-1.3a.879.879 0 00-.7-.612c-.044-.035-.113-.017-.164-.052A10.757 10.757 0 0053.905.13l-.017.026a2.442 2.442 0 00-1.13.312.628.628 0 00-.319.432c-.172.57.372.767.571 1.148a14.582 14.582 0 01.23 3.59 9.22 9.22 0 01-.187 1.975c-.059.5-.724.615-.55 1.21a.625.625 0 00.39.474 6.148 6.148 0 002.546.186c.44-.086.967-.1 1.182-.528.284-.64-.434-.932-.564-1.44a1.447 1.447 0 01.119-.915c.113-.052.251.034.346.129a8.953 8.953 0 011.03 1.362 6.054 6.054 0 00.994 1.232.206.206 0 00.1.034 18.139 18.139 0 002.071.023 2.03 2.03 0 00.656-.114.7.7 0 00.353-.552c.085-.649-.545-.845-.909-1.207"></path><path data-name="パス 472" d="M22.257.219c-.095-.036-.19-.061-.19-.061a4.407 4.407 0 00-2.8.153 4.761 4.761 0 00-2.651 4.714 4.574 4.574 0 002.69 4.248 4.115 4.115 0 004.374-.884 4.91 4.91 0 001.193-5.023A4.629 4.629 0 0022.252.219m-.749 7.214a1 1 0 01-.993-.551 7.988 7.988 0 01-.92-3.276c0-.594.094-1.26.645-1.5.6-.081.914.429 1.158.825a7.6 7.6 0 01.773 3.252c-.034.5-.144 1.1-.663 1.252"></path></g></svg>