<svg xmlns="http://www.w3.org/2000/svg" width="239.8" height="23.98" viewBox="0 0 253.24 26" class="casiodesign" role="img" aria-label="CASIO DESIGN"><defs><style>.cls-2{fill:#0a4234;}</style></defs><path class="cls-2" d="M137.08,25.5h-9.41V.5h9.41c6.89,0,12.5,5.61,12.5,12.5s-5.61,12.5-12.5,12.5Zm-4.31-5.1h4.31c4.08,0,7.4-3.32,7.4-7.4s-3.32-7.4-7.4-7.4h-4.31v14.79Z"></path><path class="cls-2" d="M95.55,0c-7.17,0-13,5.83-13,13s5.83,13,13,13,13-5.83,13-13S102.72,0,95.55,0Zm0,20.81c-4.31,0-7.81-3.51-7.81-7.81s3.51-7.81,7.81-7.81,7.81,3.51,7.81,7.81-3.51,7.81-7.81,7.81Z"></path><rect class="cls-2" x="72.83" y=".5" width="5.18" height="25"></rect><path class="cls-2" d="M33.42,.5l-10.13,25h5.58l2.22-5.47h10.24l2.22,5.47h5.58L39,.5h-5.58Zm-.23,14.35l3.02-7.46,3.02,7.46h-6.04Z"></path><path class="cls-2" d="M13,5.19c2.16,0,4.17,.86,5.66,2.43l3.76-3.57C19.94,1.44,16.59,0,13,0,5.83,0,0,5.83,0,13s5.83,13,13,13c3.28,0,6.41-1.23,8.83-3.47l-3.52-3.8c-1.45,1.35-3.34,2.09-5.3,2.09-4.31,0-7.81-3.51-7.81-7.81s3.51-7.81,7.81-7.81Z"></path><path class="cls-2" d="M61.49,10.59c-.36-.14-.72-.28-1.07-.43-2.28-.97-3.43-1.95-3.43-2.92,0-1.78,1.95-2.05,3.11-2.05,.89,0,2.2,.28,2.98,1.09l3.72-3.61c-1.62-1.66-4.12-2.66-6.7-2.66-4.96,0-8.29,2.91-8.29,7.23,0,4.9,4.97,7,6.6,7.7,.39,.16,.79,.32,1.18,.48,2.98,1.18,3.54,1.66,3.54,3.02,0,1.17-1.62,2.39-4.34,2.39-1.28,0-3.23-.56-3.96-1.37l-3.83,3.49c2.2,2.42,5.94,3.06,7.79,3.06,5.43,0,9.52-3.26,9.52-7.57,0-5.14-4.1-6.77-6.82-7.84Z"></path><polygon class="cls-2" points="253.24 .5 248.07 .5 248.07 15.53 239.7 .5 234.15 .5 234.15 25.5 239.32 25.5 239.32 10.47 247.69 25.5 253.24 25.5 253.24 .5"></polygon><path class="cls-2" d="M219.55,26c-7.17,0-13-5.83-13-13s5.83-13,13-13c3.59,0,6.94,1.44,9.42,4.05l-3.76,3.57c-1.49-1.57-3.5-2.43-5.66-2.43-4.31,0-7.81,3.51-7.81,7.81s3.51,7.81,7.81,7.81c1.61,0,3.16-.5,4.47-1.41v-3.04h-4.42v-5.19h9.6v10.59l-.83,.77c-2.41,2.24-5.55,3.47-8.83,3.47Z"></path><polygon class="cls-2" points="170.5 5.6 170.5 .5 154.13 .5 154.13 25.5 170.5 25.5 170.5 20.4 159.23 20.4 159.23 15.55 167.32 15.55 167.32 10.45 159.23 10.45 159.23 5.6 170.5 5.6"></polygon><rect class="cls-2" x="196.82" y=".5" width="5.18" height="25"></rect><path class="cls-2" d="M185.48,10.59c-.36-.14-.72-.28-1.07-.43-2.28-.97-3.43-1.95-3.43-2.92,0-1.78,1.95-2.05,3.11-2.05,.89,0,2.2,.28,2.98,1.09l3.72-3.61c-1.62-1.66-4.12-2.66-6.7-2.66-4.96,0-8.29,2.91-8.29,7.23,0,4.9,4.97,7,6.6,7.7,.39,.16,.79,.32,1.18,.48,2.98,1.18,3.54,1.66,3.54,3.02,0,1.17-1.62,2.39-4.34,2.39-1.28,0-3.23-.56-3.96-1.37l-3.83,3.49c2.2,2.42,5.94,3.06,7.79,3.06,5.43,0,9.52-3.26,9.52-7.57,0-5.14-4.1-6.77-6.82-7.84Z"></path></svg>