<svg xmlns="http://www.w3.org/2000/svg" width="58.368" height="10.313" viewBox="0 0 230.63 37.5" id="_レイヤー_celviano" data-name="レイヤー celviano" class="celviano" role="img" aria-label=""><defs><style>.cls-celviano {fill: #fff;stroke-width: 0px;}</style></defs><g id="Design-celviano"><g><path class="cls-celviano" d="m155.69,36.41c-2.46-.22-3.47-2.59-4.44-4.87L138.18.81c-.07-.15-.19-.28-.35-.34-.15-.06-.33-.06-.49,0-.15.06-.28.19-.35.34l-12.75,29.8c-1.33,3.07-2.89,5.64-5.15,5.84-.07,0-.13.04-.17.09-.04.05-.07.12-.06.19,0,.06.04.13.09.17.05.04.12.07.18.06.73-.06,2.07-.19,3.4-.19,1.2,0,2.8.13,3.32.18.06,0,.13-.01.19-.05.05-.04.09-.1.11-.16.01-.06,0-.13-.03-.19-.03-.06-.09-.1-.15-.13-.73-.33-.78-2.22-.01-4.04l2.17-5.22h16.29l2.18,5.38c1.01,2.44.45,3.56-.38,3.84-.06.02-.12.07-.15.13-.03.06-.04.12-.03.19,0,.06.05.13.1.17.05.04.12.06.18.06.82-.03,4.47-.16,5.47-.16.85,0,3.1.12,3.84.16.06,0,.14-.02.19-.07.05-.05.08-.11.09-.18,0-.07-.02-.14-.07-.19-.04-.05-.11-.08-.17-.09Zm-26.59-11.56l7.29-17.54,7.1,17.54h-14.39Z"></path><path class="cls-celviano" d="m212.29,0c-10.13,0-18.34,7.35-18.34,18.75s8.21,18.75,18.34,18.75,18.34-7.76,18.34-18.75S222.42,0,212.29,0Zm2.68,35.63c-7.86,1.24-14.57-4.39-16.21-14.73-1.79-11.27,3.13-17.95,10.84-19.18,7.96-1.26,14.55,4.25,16.23,14.88,1.63,10.3-3.04,17.78-10.87,19.02Z"></path><path class="cls-celviano" d="m31.61,29.91c-.06-.02-.14-.02-.2.02-.06.03-.11.08-.14.14-2.3,4.78-5.79,5.22-10.25,5.56-6.89.53-14.7-5.19-16.2-14.67C3.24,10.96,8.25,3,15.65,1.73c4.84-.83,12.98.86,13.91,5.48.01.07.03.13.07.18.05.05.11.08.17.09.07,0,.13-.01.19-.05.06-.04.1-.1.11-.16.31-1.16.56-3.31.52-4.5-1.09-.33-2.48-.83-4.05-1.3-2.48-.75-5.39-1.47-8.24-1.47C8.21,0,0,7.35,0,18.75s8.21,18.75,18.34,18.75c5.6,0,9.01-.71,11.63-1.57.95-1.95,1.65-4.83,1.83-5.7.01-.06,0-.14-.04-.2-.03-.06-.09-.1-.16-.12Z"></path><path class="cls-celviano" d="m116.71.57c-.68.04-3.11.15-4.11.15-.83,0-3.23-.12-3.89-.15-.06,0-.13.02-.19.06-.05.04-.08.11-.09.18,0,.06.01.13.05.19.04.05.11.09.17.1.83.11,1.69.76,1.69,3.86v27.72c0,3.55-1.09,3.74-1.98,3.76-.07,0-.13.03-.18.08-.05.05-.08.13-.07.2,0,.06.04.12.09.17.05.04.13.07.19.06.68-.04,3.25-.16,4.24-.16.83,0,3.11.12,3.77.16.06,0,.13-.02.18-.06.05-.05.08-.11.09-.18,0-.07-.02-.13-.06-.18-.05-.05-.11-.09-.17-.09-.83-.09-1.69-.65-1.69-3.74V4.95c0-3.61.93-3.85,1.99-3.87.07,0,.14-.03.18-.08.05-.05.07-.12.07-.18,0-.07-.03-.13-.08-.18-.05-.05-.13-.07-.19-.06Z"></path><path class="cls-celviano" d="m77.39,32.48c-.06-.02-.13-.01-.19.02-.06.03-.1.09-.13.15-.34.99-1.42,2.24-4.54,2.29-5.69.09-8.94.04-8.94-.02-.08.08-.16-7.84-.16-16.23V4.95c0-3.39,1.76-3.81,2.77-3.87.07,0,.13-.04.18-.09.05-.05.07-.12.06-.19,0-.07-.03-.13-.08-.18-.05-.05-.12-.07-.18-.07-.8.03-4.01.16-5.02.16-.85,0-3.58-.12-4.32-.16-.06,0-.14.02-.19.07-.05.05-.08.11-.08.18,0,.07.02.14.07.18.05.05.11.08.18.08,1.49.04,2.22.45,2.22,3.87v27.72c0,3.39-1.01,3.78-2.22,3.83-.07,0-.13.03-.18.08-.05.05-.07.12-.07.18,0,.07.03.14.08.18.05.05.12.07.19.07,1.13-.04,6.27-.24,10.19-.24,1.65,0,6.34.31,7.99.31s2.03-2.09,2.55-4.29c.01-.06,0-.13-.03-.19-.03-.06-.09-.1-.15-.12Z"></path><path class="cls-celviano" d="m106.05.57c-.68.03-2.67.15-3.66.15-.81,0-2.46-.11-3.07-.15-.06,0-.13.01-.19.05-.05.04-.09.1-.1.16-.01.06,0,.14.03.19.03.06.09.1.15.13.82.31.74,2.53-.02,4.32l-10.35,24.7-10.63-26.01c-.77-1.88.06-2.86.95-3.03.06-.01.13-.05.17-.1.04-.05.06-.12.05-.19,0-.07-.04-.13-.09-.17-.05-.04-.13-.07-.19-.06-.81.04-4.25.16-5.27.16-.85,0-3.31-.12-4.06-.16-.06,0-.14.02-.19.07-.05.04-.08.11-.09.18,0,.07.02.14.07.19.04.05.11.08.18.09,2.01.11,2.94,1.46,3.62,3.04l13.89,32.67c.05.12.15.21.26.26.12.05.25.05.37,0,.12-.05.22-.14.27-.26l12.42-28.97c1.73-4,3.03-6.56,5.52-6.74.07,0,.14-.04.18-.09.04-.05.07-.12.06-.19,0-.07-.04-.13-.09-.18-.05-.05-.12-.07-.19-.06Z"></path><path class="cls-celviano" d="m54.44,32.48c-.06-.02-.13-.01-.19.02-.06.03-.1.08-.13.14-.45,1.22-1.34,2.24-4.54,2.29-5.74.09-8.71.04-8.71-.02-.08.1-.16-7.66-.16-16.03h6.21c1.49,0,2.77.59,2.98,1.43.02.06.06.12.12.16.05.03.13.05.19.04.07,0,.13-.05.17-.1.04-.05.06-.13.05-.19-.05-.52-.18-1.7-.18-2.5,0-.92.12-2.06.18-2.51,0-.06,0-.14-.05-.2-.04-.05-.1-.09-.17-.11-.07-.01-.14,0-.19.04-.06.03-.1.09-.12.16-.17.63-.92,1.92-2.98,1.92h-6.21V2.58h5.79c1.62,0,2.76.4,3.04,1.31.02.07.07.12.13.16.06.03.13.04.2.03.07-.02.13-.05.16-.11.04-.05.06-.13.05-.19-.1-.95-.27-2.01-.56-2.54-.21-.39-.6-.51-1.14-.51h-10.42c-.82,0-2.61-.17-3.27-.23-.06,0-.13.02-.19.06-.06.04-.09.1-.1.17-.01.07,0,.14.04.19.04.06.1.1.16.11.68.15,1.71.89,1.71,3.85v27.79c0,2.96-1.03,3.67-1.7,3.81-.07.02-.12.05-.16.11-.04.05-.06.12-.05.19,0,.06.04.13.09.17.05.04.12.07.19.06,1.05-.05,5.45-.24,9.52-.24,2.23,0,5.8.32,7.68.32s2.2-2.03,2.74-4.3c.02-.06,0-.13-.03-.19-.04-.06-.09-.1-.15-.12Z"></path><path class="cls-celviano" d="m192.31.53c-.65.04-2.46.19-3.29.19-.99,0-2.92-.15-3.6-.19-.06,0-.18,0-.26.02-.12.03-.19.14-.19.22,0,.07.02.14.06.18.04.05.11.08.18.09.98.06,2.54.48,2.54,3.87v24.08l-20.5-24.87c-1.45-1.74-1.18-2.73-.49-3.01.06-.02.12-.07.14-.13.03-.06.04-.13.02-.19-.01-.06-.05-.12-.1-.16-.05-.04-.13-.06-.19-.06-.67.04-3.54.16-4.36.16-1,0-3.17-.12-3.86-.15-.05,0-.13.02-.18.06-.05.04-.09.11-.09.18,0,.07.02.14.06.19.05.05.11.08.18.08.94.06,2.26.46,2.26,3.83v27.75c0,3.16-1.06,3.68-2.16,3.75-.07,0-.13.04-.18.09-.04.05-.07.12-.06.19,0,.07.04.13.08.18.05.04.13.07.19.06.56-.04,2.12-.15,3.43-.15,1.45,0,3.03.11,3.63.15.06,0,.13-.02.18-.06.06-.05.09-.11.09-.18,0-.07-.02-.13-.06-.19-.04-.05-.11-.09-.17-.09-.77-.07-2.52-.49-2.52-3.75V5.26l25.93,31.74c.09.11.2.18.33.22.13.04.27.03.4-.01.13-.04.24-.13.32-.24.08-.11.12-.25.12-.38V4.91c0-3.16,1.07-3.78,2.17-3.87.06,0,.13-.04.17-.09.04-.05.06-.12.06-.19,0-.07-.03-.13-.09-.18-.05-.04-.12-.07-.19-.06Z"></path></g></g></svg>