<svg xmlns="http://www.w3.org/2000/svg" width="58.368" height="10.313" viewBox="0 0 261.58 42.53" id="_レイヤー_celviano_g" data-name="レイヤー 4celviano_g" class="celviano_g" role="img" aria-label="CELVIANO"><defs><style>.cls-celviano_g {fill: #c7b26d; stroke-width: 0px;}</style></defs><g id="Design-celviano_g"><g><path class="cls-celviano_g" d="m176.59,41.29c-2.79-.25-3.94-2.94-5.04-5.53L156.73.92c-.07-.17-.22-.31-.39-.39-.17-.07-.38-.07-.55,0-.17.07-.32.21-.39.39l-14.46,33.8c-1.51,3.48-3.28,6.4-5.84,6.62-.08,0-.15.04-.2.1-.05.06-.08.14-.07.21,0,.07.04.15.1.2.05.05.14.07.21.07.83-.07,2.35-.21,3.86-.21,1.36,0,3.18.15,3.76.21.07,0,.15-.02.21-.06.06-.05.1-.11.12-.19.02-.07,0-.15-.03-.21-.04-.07-.1-.11-.17-.14-.82-.38-.89-2.52-.02-4.59l2.46-5.92h18.48l2.47,6.1c1.14,2.77.51,4.04-.43,4.35-.07.03-.14.08-.18.14-.03.06-.05.14-.03.22,0,.07.05.14.11.19.06.05.14.07.21.07.93-.04,5.07-.18,6.21-.18.96,0,3.52.14,4.36.18.07,0,.16-.02.21-.08.06-.05.09-.13.1-.2,0-.08-.03-.16-.08-.21-.04-.06-.12-.09-.19-.1Zm-30.15-13.11l8.27-19.9,8.06,19.9h-16.33Z"></path><path class="cls-celviano_g" d="m240.78,0c-11.49,0-20.81,8.33-20.81,21.27s9.31,21.27,20.81,21.27,20.8-8.81,20.8-21.27S252.27,0,240.78,0Zm3.04,40.41c-8.91,1.41-16.52-4.98-18.39-16.71-2.03-12.79,3.55-20.36,12.3-21.75,9.03-1.43,16.5,4.82,18.41,16.88,1.85,11.68-3.45,20.17-12.33,21.57Z"></path><path class="cls-celviano_g" d="m35.86,33.93c-.07-.02-.15-.02-.22.02-.07.03-.13.09-.16.16-2.61,5.42-6.57,5.92-11.63,6.3-7.81.6-16.68-5.89-18.38-16.64C3.67,12.43,9.35,3.4,17.76,1.96c5.49-.94,14.73.98,15.78,6.22.01.07.03.15.08.2.05.05.12.09.2.1.08,0,.15-.01.21-.05.06-.05.11-.12.13-.18.35-1.32.63-3.75.59-5.1-1.24-.37-2.82-.94-4.6-1.48-2.81-.86-6.12-1.67-9.35-1.67C9.31,0,0,8.33,0,21.27s9.31,21.27,20.8,21.27c6.35,0,10.22-.8,13.19-1.78,1.07-2.22,1.87-5.48,2.07-6.47.01-.07,0-.16-.04-.22-.04-.06-.1-.12-.18-.14Z"></path><path class="cls-celviano_g" d="m132.37.64c-.77.04-3.53.17-4.66.17-.94,0-3.66-.13-4.41-.17-.07,0-.15.02-.21.07-.06.05-.09.12-.1.2,0,.07.02.15.06.21.05.06.12.1.2.11.94.12,1.91.86,1.91,4.38v31.44c0,4.03-1.23,4.24-2.25,4.26-.08,0-.15.03-.21.09-.05.06-.09.14-.08.22,0,.07.04.14.1.19.06.05.14.08.21.07.77-.04,3.68-.18,4.81-.18.95,0,3.52.13,4.27.18.07,0,.15-.02.21-.07.06-.05.09-.12.1-.2,0-.08-.02-.15-.07-.21-.05-.06-.12-.1-.2-.11-.94-.1-1.91-.73-1.91-4.25V5.61c0-4.09,1.06-4.37,2.25-4.39.08,0,.15-.04.2-.09.05-.06.08-.13.08-.21,0-.08-.04-.15-.09-.2-.06-.05-.14-.08-.22-.07Z"></path><path class="cls-celviano_g" d="m87.77,36.84c-.07-.02-.15-.01-.22.02-.07.04-.12.1-.14.17-.39,1.12-1.61,2.55-5.15,2.6-6.45.1-10.14.05-10.14-.03-.09.09-.18-8.9-.18-18.41V5.61c0-3.84,1.99-4.32,3.15-4.39.08,0,.15-.04.2-.1.05-.06.08-.13.07-.21,0-.08-.04-.15-.09-.2-.06-.05-.14-.08-.21-.08-.91.04-4.54.18-5.69.18-.97,0-4.06-.14-4.9-.18-.07,0-.15.02-.21.08-.06.05-.09.13-.09.2,0,.07.03.15.08.21.05.05.12.09.2.09,1.69.05,2.51.51,2.51,4.39v31.43c0,3.84-1.14,4.28-2.51,4.35-.08,0-.15.04-.2.09-.05.06-.08.14-.08.21,0,.08.04.15.09.2.05.05.14.08.21.08,1.29-.04,7.11-.27,11.55-.27,1.87,0,7.19.35,9.06.35s2.3-2.37,2.9-4.86c.01-.07,0-.15-.03-.22-.04-.06-.1-.11-.17-.13Z"></path><path class="cls-celviano_g" d="m120.28.64c-.78.04-3.02.17-4.15.17-.92,0-2.79-.13-3.48-.17-.07,0-.15.02-.21.06-.06.05-.1.11-.12.18-.01.07,0,.15.03.22.04.07.1.12.17.15.93.35.84,2.87-.02,4.9l-11.74,28.02-12.06-29.5c-.88-2.14.07-3.25,1.07-3.44.07-.02.14-.06.19-.12.04-.06.07-.14.05-.22,0-.07-.04-.15-.1-.2-.06-.05-.14-.08-.21-.07-.92.04-4.83.18-5.97.18-.96,0-3.76-.14-4.61-.18-.07,0-.16.02-.21.08-.06.05-.09.13-.1.2,0,.08.03.16.08.21.05.06.12.09.2.1,2.27.13,3.33,1.65,4.1,3.45l15.76,37.05c.06.13.17.24.3.3.13.05.29.05.42,0,.13-.05.25-.16.3-.3l14.08-32.86c1.96-4.53,3.44-7.44,6.26-7.65.08,0,.15-.04.2-.1.05-.06.08-.14.07-.21,0-.08-.04-.15-.1-.2-.06-.05-.14-.08-.21-.07Z"></path><path class="cls-celviano_g" d="m61.75,36.84c-.07-.03-.15-.01-.22.02-.07.03-.12.09-.14.16-.51,1.38-1.52,2.54-5.15,2.6-6.51.1-9.88.05-9.88-.03-.09.11-.18-8.69-.18-18.18h7.04c1.69,0,3.15.67,3.38,1.62.02.07.07.14.13.18.06.04.14.06.21.04.08-.01.14-.06.19-.12.04-.06.06-.14.06-.21-.06-.59-.21-1.93-.21-2.83,0-1.04.14-2.33.2-2.85,0-.07-.01-.16-.06-.22-.04-.06-.11-.1-.19-.12-.07-.01-.15,0-.22.04-.06.04-.11.1-.13.18-.2.72-1.04,2.18-3.37,2.18h-7.04V2.92h6.56c1.83,0,3.13.45,3.45,1.49.02.07.08.14.15.18.07.04.15.05.22.03.08-.02.14-.06.19-.12.05-.06.07-.15.06-.21-.12-1.08-.31-2.28-.64-2.88-.24-.44-.68-.58-1.29-.58h-11.82c-.93,0-2.96-.2-3.71-.26-.07,0-.15.02-.21.06-.06.05-.1.12-.11.19-.01.08,0,.16.05.22.05.07.11.11.19.12.77.17,1.94,1.01,1.94,4.37v31.52c0,3.35-1.16,4.16-1.93,4.32-.07.02-.14.06-.19.12-.04.06-.06.14-.05.21,0,.07.05.15.11.2.06.05.14.07.21.07,1.2-.05,6.18-.27,10.8-.27,2.52,0,6.57.36,8.71.36s2.49-2.3,3.1-4.88c.02-.06,0-.15-.03-.22-.04-.06-.1-.11-.17-.13Z"></path><path class="cls-celviano_g" d="m218.12.6c-.74.05-2.79.22-3.73.22-1.12,0-3.31-.17-4.09-.22-.07,0-.21,0-.3.03-.13.03-.22.15-.22.24,0,.08.02.15.07.21.05.06.13.09.2.1,1.11.07,2.88.55,2.88,4.39v27.31l-23.25-28.21c-1.65-1.97-1.34-3.1-.56-3.42.07-.03.13-.08.16-.15.03-.06.05-.14.03-.22-.01-.07-.06-.14-.12-.18-.06-.04-.15-.07-.21-.06-.76.04-4.01.18-4.95.18-1.13,0-3.6-.13-4.38-.17-.06,0-.15.02-.2.07-.06.05-.1.13-.1.2,0,.08.02.16.07.21.05.05.13.09.21.1,1.07.06,2.57.52,2.57,4.34v31.48c0,3.58-1.2,4.17-2.45,4.25-.08,0-.15.04-.21.1-.05.06-.08.14-.07.21,0,.07.05.15.1.2.06.05.14.07.21.07.64-.04,2.4-.17,3.89-.17,1.64,0,3.44.13,4.12.17.07,0,.15-.02.2-.07.06-.05.1-.13.1-.2.01-.08-.02-.15-.07-.21-.05-.06-.12-.1-.19-.1-.87-.08-2.86-.56-2.86-4.25V5.96l29.4,36c.1.12.23.21.38.24.15.04.31.04.45-.01.15-.05.27-.15.36-.27.09-.13.14-.28.14-.44V5.57c0-3.59,1.21-4.29,2.46-4.39.07,0,.15-.04.2-.1.05-.06.07-.14.07-.21,0-.07-.04-.15-.1-.2-.06-.05-.14-.08-.21-.07Z"></path></g></g></svg>