<svg xmlns="http://www.w3.org/2000/svg" width="58.368" height="10.313" viewBox="0 0 283.46 50.44" id="_レイヤー_casiotone" data-name="レイヤー casiotone" class="casiotone" role="img" aria-label="Casiotone"><defs><style>.cls-casiotone {fill: #fff;stroke-width: 0px;}</style></defs><g id="Design-casiotone"><g><path class="cls-casiotone" d="M25.79,43.05c-9.74.34-17.49-7.55-17.83-17.28-.34-9.74,6.84-18.14,16.58-18.48,5.26-.18,10.13,1.38,13.4,4.6l5.49-4C38.65,2.54,31.79-.25,24.29.02,10.42.5-.47,12.18.02,26.04c.48,13.87,12.16,24.75,26.03,24.27,6.94-.24,13.06-2.93,17.53-8.01l-5.43-3.99c-3.08,2.95-7.47,4.56-12.35,4.73Z"></path><path class="cls-casiotone" d="M75.71,45.94c-2.46,2.27-7.78,4.5-13.82,4.5-10.4,0-14.58-5.92-14.58-11.28s4.48-10.42,12.29-10.42c3.22,0,6.43.83,8.99,2.11v-2.24c0-3.02-3.37-5.62-8.03-5.62-3.93,0-5.99,1.37-7.37,2.38l-3.65-4.36c1.91-1.88,6.46-4.22,11.75-4.22,9.64,0,14.43,5.19,14.43,12.88v16.26ZM68.59,36.75c-1.39-1.32-4.25-2.19-7.33-2.19-4.22,0-6.2,2.46-6.2,4.91s1.98,5.05,6.89,5.05c2.65,0,5.13-.98,6.64-1.92v-5.85Z"></path><path class="cls-casiotone" d="M83.28,41.64c1.97,1.73,5.45,3.37,8.73,3.22,2.89-.13,4.65-1.77,4.56-3.84-.26-5.84-14.33-5.91-14.71-14.69-.21-4.76,3.76-9.27,10.68-9.57,5.16-.22,9.62,2.05,11.37,3.88l-3.37,4.5c-.53-.55-3.54-2.93-6.87-2.78-2.39.1-4.1,1.5-4.02,3.38.23,5.27,14.03,4.92,14.45,14.57.25,5.65-4.23,9.8-11.47,10.11-5.41.23-10.2-2.16-12.68-4l3.33-4.79Z"></path><path class="cls-casiotone" d="M109.81,49.5v-31.82h7.44v31.82h-7.44Z"></path><path class="cls-casiotone" d="M109.81,14.28v-7.44h7.44v7.44h-7.44Z"></path><path class="cls-casiotone" d="M139.6,50.44c-9.64,0-17.14-7.43-17.14-16.76s7.5-16.89,17.33-16.89,17.02,7.62,17.02,16.89-7.56,16.76-17.21,16.76ZM148.92,33.68c0-6.36-4.16-10.65-9.2-10.65-5.48,0-9.58,4.29-9.58,10.84,0,6.18,4.54,10.4,9.39,10.4,5.67,0,9.39-4.1,9.39-10.59Z"></path><path class="cls-casiotone" d="M164.34,49.5v-25.71h-6.21v-6.05h6.21V6.84h7.44v10.9h6.03v6.05h-6.03v25.71h-7.44Z"></path><path class="cls-casiotone" d="M196.74,50.44c-9.64,0-17.14-7.43-17.14-16.76s7.5-16.89,17.33-16.89,17.01,7.62,17.01,16.89-7.56,16.76-17.2,16.76ZM206.06,33.68c0-6.36-4.16-10.65-9.2-10.65-5.48,0-9.57,4.29-9.57,10.84,0,6.18,4.54,10.4,9.39,10.4,5.67,0,9.39-4.1,9.39-10.59Z"></path><path class="cls-casiotone" d="M239.26,49.5v-17.33c0-5.55-1.95-8.82-7.12-8.82-3.08,0-5.8,2.22-6.36,3.66v22.5h-7.43v-31.82h7.43v3.28c1.17-1.96,4.05-4.16,8.97-4.16,6.93,0,11.95,3.46,11.95,11.47v21.24h-7.44Z"></path><path class="cls-casiotone" d="M281.86,41.94c-1.23,3.52-6.16,8.5-12.95,8.5-10.82,0-17.58-6.55-17.58-16.64s6.68-17.01,16.63-17.01,15.5,7.55,15.5,16.51c0,1.72-.07,3.09-.07,3.09h-24.38c.44,4.1,3.58,7.65,9.74,7.65,3.61,0,6.33-2.04,7.59-4.18l5.51,2.08ZM275.71,30.4c-.18-4.16-2.96-7.75-7.87-7.75-4.35,0-8.19,2.77-8.76,7.75h16.63Z"></path></g></g></svg>