<svg xmlns="http://www.w3.org/2000/svg" width="58.368" height="10.313" viewBox="0 0 58.368 10.313" preserveAspectRatio="none" class="sheen" role="img" aria-label="SHEEN"><g data-name="グループ 3928" fill="#1a1311"><path data-name="パス 462" d="M2.758 2.251C2.704 1.156 3.882.851 5.582.831a5.319 5.319 0 013.768 1.07L9.25.439A16.078 16.078 0 005.022.004C1.782.042.261 1.07.322 2.389c.06 1.489 2.057 2.274 3.5 2.843 1.084.434 3.8 1.054 3.865 2.32.035.863-.679 1.659-3.388 1.659A6.436 6.436 0 01-.01 7.53l.116 1.927a13.314 13.314 0 005.14.855c2.34-.03 4.994-.772 4.906-2.948-.073-1.794-3.209-2.775-4.288-3.154-1.047-.373-3.08-.9-3.116-1.958"></path><path data-name="パス 463" d="M22.391 2.953a1.787 1.787 0 01.117-.675h-2.177a1.875 1.875 0 01.129.675c.017.281.036 1.343.044 2.579h-5.7c.005-1.237.024-2.3.041-2.579a2.24 2.24 0 01.118-.675h-2.172a1.945 1.945 0 01.112.675c.056.646.077 5.352 0 6.566a1.463 1.463 0 01-.112.607h2.166a1.663 1.663 0 01-.118-.607c-.036-.552-.041-1.766-.041-3.058h5.7c0 1.293-.015 2.506-.044 3.058a1.409 1.409 0 01-.129.607h2.177a1.351 1.351 0 01-.117-.607c-.072-1.215-.051-5.92 0-6.566"></path><path data-name="パス 464" d="M43.763 9.173a2.176 2.176 0 001.315-.449v1.4h-8.236a1.515 1.515 0 00.118-.607c.071-1.215.049-5.92 0-6.566a2.011 2.011 0 00-.118-.672h8.236v1.294a2.056 2.056 0 00-1.188-.408h-4.807v2.38h5.313v.906h-5.313v2.717z"></path><path data-name="パス 465" d="M32.637 9.173a2.184 2.184 0 001.318-.449v1.4h-8.24a1.506 1.506 0 00.117-.607c.065-1.215.047-5.92 0-6.566a2 2 0 00-.117-.672h8.24v1.294a2.093 2.093 0 00-1.189-.408h-4.813v2.38h5.319v.906h-5.319v2.717z"></path><path data-name="パス 466" d="M50.143 10.126a1.37 1.37 0 01-.1-.607c-.059-.912-.057-3.95-.033-5.6a10.078 10.078 0 013.188 3.018c1.4 1.926 3.651 3.467 5.173 3.255a3.5 3.5 0 01-.1-.822c-.044-.641-.064-5.275 0-6.481a1.6 1.6 0 01.1-.607h-2.185a1.454 1.454 0 01.109.609c.062.908.049 3.913.028 5.573a9.786 9.786 0 01-3.1-2.987c-1.26-1.806-3.673-3.461-5.2-3.257a3.255 3.255 0 01.109.81c.049.632.07 5.277 0 6.492a1.475 1.475 0 01-.109.607z"></path></g></svg>