<svg xmlns="http://www.w3.org/2000/svg" width="244.68" height="56.13" viewBox="0 0 244.68 56.13" class="privia"><defs><style>.cls-1{fill:#fff;}</style></defs><g id="レイヤー_privia" data-name="レイヤー privia"><g id="Design-privia"><rect class="cls-1" x="101.64" y="23.84" width="8.12" height="31.18"></rect><path class="cls-1" d="M105.7,11.63a4.3,4.3,0,1,0,4.3,4.3A4.29,4.29,0,0,0,105.7,11.63Z"></path><rect class="cls-1" x="170.53" y="23.84" width="8.12" height="31.18"></rect><path class="cls-1" d="M70.22,32.87v-9H62.1V55h8.12V39.84c4.71-6.41,11.24-8,18.22-8.24V24.05C81.08,24.73,75,27,70.22,32.87Z"></path><path class="cls-1" d="M234.65,55h10l-26.3-44.08c-12.84,12.21-30.79,31.35-25,40.58,3.61,5.72,12.42,5.41,21.83,1l-.19-.52c-6.31,1.09-12.67-.56-14.43-4.58-2.07-4.71,2.15-14.38,13.95-26.1Z"></path><polygon class="cls-1" points="140.17 41.84 129.43 23.82 120.91 23.82 140.17 56.13 159.44 23.82 150.92 23.82 140.17 41.84"></polygon><path class="cls-1" d="M0,0V.49C3,2.07,4.07,3.9,4.07,7V55H14.53V4.65c16.66.2,27.1,5,27.1,13.86,0,6.61-7.47,15.32-20.91,17.93l.14.7c13.31-.45,30.83-8.29,30.83-18.63C51.69,5.45,33.89,0,0,0Z"></path><path class="cls-1" d="M174.59,11.63a4.3,4.3,0,1,0,4.3,4.3A4.29,4.29,0,0,0,174.59,11.63Z"></path></g></g></svg>