<svg xmlns="http://www.w3.org/2000/svg" width="113.9" height="51.3" viewBox="0 0 113.9 51.3" class="vintage"> <path id="パス_8180" data-name="パス 8180" d="M33.1,8.6a2.252,2.252,0,0,1-.1.7,1.053,1.053,0,0,1-1,.8,23.484,23.484,0,0,1-2.6.1,23.484,23.484,0,0,1-2.6-.1.975.975,0,0,1-1.1-1,16.95,16.95,0,0,1-.1-2.3c0-.8.1-1.8.1-2.3.1-.4.4-.7,1.1-.8a23.484,23.484,0,0,1,2.6-.1,20.9,20.9,0,0,1,2.5.1,1,1,0,0,1,.9.7,1.759,1.759,0,0,1,.1.6H37V3.9a4.3,4.3,0,0,0-1-2.5A3.946,3.946,0,0,0,33.6.2,40.966,40.966,0,0,0,29.3,0a38.741,38.741,0,0,0-4.2.2,3.676,3.676,0,0,0-2.7,1.3,4.342,4.342,0,0,0-1,2.6c0,.6-.1,2.1-.1,2.7s.1,1.8.1,2.4a4.608,4.608,0,0,0,1,2.6,4.071,4.071,0,0,0,2.7,1.3c1,.1,3.4.2,4.2.2a34.674,34.674,0,0,0,4.4-.2,3.264,3.264,0,0,0,2.5-1.3,4.189,4.189,0,0,0,.9-2.6v-1h0l-4,.4h0m10.5-.2h0l1.9-5h.6L48,8.3h0l-4.4.1ZM42.9.6h0L37.4,13.5h4.4l.8-2.3h6.3l.8,2.3H54L48.6.6H42.9ZM70.7.6h0V13.4h4.1V.7H70.7ZM58.4,9.5h-4c0,2.3,1.2,3.5,2.7,3.8a25.124,25.124,0,0,0,4.4.3,30.352,30.352,0,0,0,4.6-.2,3.215,3.215,0,0,0,2.1-1.1,3.945,3.945,0,0,0,.9-2.8,4.491,4.491,0,0,0-.5-2.4,3.49,3.49,0,0,0-3.1-1.5c-.9-.1-5.7-.3-6.2-.3s-.8-.4-.8-1,.3-1,.9-1a19.29,19.29,0,0,1,2.5-.1,12.167,12.167,0,0,1,2.1.1.849.849,0,0,1,.7.8v.3h4a6.537,6.537,0,0,0-.4-2.1A3.107,3.107,0,0,0,66.8.8,16.218,16.218,0,0,0,61.7.3a16.218,16.218,0,0,0-5.1.5,3.079,3.079,0,0,0-1.5,1.5,5.44,5.44,0,0,0-.4,2A4.386,4.386,0,0,0,55,6.2a3.219,3.219,0,0,0,2.9,1.9c1.9.1,5.5.3,6.4.3a1.021,1.021,0,0,1,1,1.1,1,1,0,0,1-1.1,1.1c-.7,0-1.2.1-2.1.1a16.271,16.271,0,0,1-2.4-.1c-.9,0-1.3-.4-1.3-1.1Zm29.8-.3a1.075,1.075,0,0,1-1,1,24.369,24.369,0,0,1-2.7.1h0a21.75,21.75,0,0,1-2.5-.1,1.029,1.029,0,0,1-1.1-1,16.95,16.95,0,0,1-.1-2.3A10.949,10.949,0,0,1,81,4.7a1.234,1.234,0,0,1,1.1-.8,23.484,23.484,0,0,1,2.6-.1s1.9,0,2.6.1a1.215,1.215,0,0,1,1,.8,16.987,16.987,0,0,1,.1,2.4c-.1.7-.1,1.4-.2,2.1m4.1-5.6A3.859,3.859,0,0,0,89.2.7,28.584,28.584,0,0,0,84.6.4,28.584,28.584,0,0,0,80,.7a4,4,0,0,0-3.1,2.9A22.39,22.39,0,0,0,76.6,7c0,1.1.1,2.5.2,3.5a3.964,3.964,0,0,0,3.2,3,31.861,31.861,0,0,0,4.5.3,32.911,32.911,0,0,0,4.5-.3,4.1,4.1,0,0,0,3.2-3A19.979,19.979,0,0,0,92.4,7a13.037,13.037,0,0,0-.1-3.4m3.4,8.8a.749.749,0,0,1-.1.5,1.38,1.38,0,0,1-.3.4c-.1.1-.3.2-.4.3a.9.9,0,0,1-.5.1.749.749,0,0,1-.5-.1,1.38,1.38,0,0,1-.4-.3c-.1-.1-.2-.3-.3-.4a.9.9,0,0,1-.1-.5.749.749,0,0,1,.1-.5c.1-.1.2-.3.3-.4s.3-.2.4-.3a1.3,1.3,0,0,1,1,0c.2.1.3.1.4.3a1.381,1.381,0,0,1,.3.4A.749.749,0,0,1,95.7,12.4Zm-.2,0c0-.2,0-.3-.1-.4s-.1-.2-.2-.3-.2-.2-.3-.2c-.1-.1-.2-.1-.4-.1a.6.6,0,0,0-.4.1c-.1.1-.2.1-.3.2s-.2.2-.2.3a.6.6,0,0,0-.1.4.6.6,0,0,0,.1.4c0,.1.1.2.2.3s.2.2.3.2a.85.85,0,0,0,.8,0c.1-.1.2-.1.3-.2s.2-.2.2-.3S95.5,12.6,95.5,12.4Zm-1.3.7H94V11.7h.5c.2,0,.3,0,.4.1a.4.4,0,0,1-.3.7l.4.6h-.3l-.4-.6h-.2v.6h.1Zm.3-.8h.2a.1.1,0,0,0,.1-.1V12l-.1-.1h-.5v.4Z" fill="#070707"></path> <g id="グループ_14835" data-name="グループ 14835"> <g id="グループ_14834" data-name="グループ 14834"> <g id="グループ_14828" data-name="グループ 14828"> <path id="パス_8181" data-name="パス 8181" d="M7.1,34.8h.1l3.3-8.4h3.7V27L7.9,41.3H6.3L0,27v-.6H3.6Z" fill="#070707"></path> </g> <g id="グループ_14829" data-name="グループ 14829"> <path id="パス_8182" data-name="パス 8182" d="M26.9,37.9v3.3H19.4V37.9h1.9V29.7H19.6V26.4h7.2v3.3H25v8.2Z" fill="#070707"></path> </g> <g id="グループ_14830" data-name="グループ 14830"> <path id="パス_8183" data-name="パス 8183" d="M37.5,33.9v7.2H33.6V26.3H35l7.4,7.3V26.4h3.8V41.2H44.9Z" fill="#070707"></path> </g> <g id="グループ_14831" data-name="グループ 14831"> <path id="パス_8184" data-name="パス 8184" d="M52,29.8V26.4H62.9v3.4H59.3V41.2H55.6V29.8Z" fill="#070707"></path> </g> <path id="パス_8185" data-name="パス 8185" d="M73.9,26.3H72.3L65.7,40.7v.5h3.7l.9-1.8h5.8l.9,1.8h3.7v-.5Zm-2.5,9.8,1.7-3.9,1.7,3.9Z" fill="#070707"></path> <g id="グループ_14832" data-name="グループ 14832"> <path id="パス_8186" data-name="パス 8186" d="M91.7,26.3c3,0,6.1,1.6,6.8,5.2H94.8a3.012,3.012,0,0,0-3.1-1.8c-2.4,0-3.7,1.8-3.7,4.1,0,2.4,1.4,4,3.7,4A3.089,3.089,0,0,0,94.9,36H91.8V32.7h7a10.36,10.36,0,0,1-.4,4.3c-1.1,3.1-3.8,4.2-6.6,4.2a7.232,7.232,0,0,1-7.5-7.5C84.1,28.8,87.9,26.3,91.7,26.3Z" fill="#070707"></path> </g> <g id="グループ_14833" data-name="グループ 14833"> <path id="パス_8187" data-name="パス 8187" d="M113.7,29.8h-5.4v2.1h5v3.3h-5v2.6h5.6v3.3h-9.4V26.4h9.2C113.7,27.5,113.7,28.7,113.7,29.8Z" fill="#070707"></path> </g> </g> <path id="パス_8188" data-name="パス 8188" d="M34.5,51.3a2.61,2.61,0,0,1-1.8-.6,1.284,1.284,0,0,1-.4-1h1.2a1,1,0,0,0,1,.6h0c.2,0,.5,0,.6-.1a.55.55,0,0,0,.3-.5c0-.6-.8-.6-1.2-.6-1.4-.1-2-.6-2-1.7a1.746,1.746,0,0,1,.4-1.2,2.708,2.708,0,0,1,3.4,0,1.284,1.284,0,0,1,.4,1H35.2a.875.875,0,0,0-.9-.6c-.4,0-.9.2-.9.6,0,.6.6.7,1,.7,1.2.1,2.2.3,2.2,1.6a1.515,1.515,0,0,1-.7,1.3C35.7,51.2,35.1,51.3,34.5,51.3Z" fill="#070707"></path> <path id="パス_8189" data-name="パス 8189" d="M51.9,51.2a3.722,3.722,0,0,1-2-.7,2.723,2.723,0,0,1-.9-2.1,2.583,2.583,0,0,1,.9-2.1,2.724,2.724,0,0,1,2-.7,3.371,3.371,0,0,1,1.7.5,2.143,2.143,0,0,1,.9,1.5H53.2a1.291,1.291,0,0,0-1.3-.9,1.53,1.53,0,0,0-1.5,1.7,1.59,1.59,0,0,0,1.5,1.7,1.335,1.335,0,0,0,1.4-.9h1.3a2.548,2.548,0,0,1-2.7,2Z" fill="#070707"></path> <path id="パス_8190" data-name="パス 8190" d="M70.1,45.5A1.846,1.846,0,0,0,68,47.4a1.656,1.656,0,0,0,.5,1.2,1.9,1.9,0,0,0,1.3.5h.4l-1.3,2.1h1.4L72,48.4h0a1.8,1.8,0,0,0,.3-1.1A1.915,1.915,0,0,0,70.1,45.5Zm0,2.7a.736.736,0,0,1-.8-.8.789.789,0,0,1,.8-.8.736.736,0,0,1,.8.8C71,47.9,70.6,48.2,70.1,48.2Z" fill="#070707"></path> <path id="パス_8191" data-name="パス 8191" d="M47.1,51.2l-3.1-3v3H42.7V45.6h.4l3.1,3v-3h1.3v5.6Z" fill="#070707"></path> <path id="パス_8192" data-name="パス 8192" d="M81.1,49.1V45.6H79.7l-2.3,4v.5h2.5v1.1h1.2V50.1h.5v-1Zm-1.1-1v1H78.8l1.1-2H80Z" fill="#070707"></path> <path id="パス_8193" data-name="パス 8193" d="M73.7,51.2l1.9-4.5H73.3V45.6h4v.1L75,51.2Z" fill="#070707"></path> <path id="パス_8194" data-name="パス 8194" d="M64,51.2v-1h.9V46.6h-.8v-1h2v4.6H67v1Z" fill="#070707"></path> <path id="パス_8195" data-name="パス 8195" d="M56.1,51.2V45.6h3.4v1.1H57.4v1h1.9v1.1H57.4v1.3h2.2v1.1Z" fill="#070707"></path> <path id="パス_8196" data-name="パス 8196" d="M38.2,51.2V50.1h.7V46.7h-.6V45.6h2.6v1.1h-.7v3.4h.7v1.1Z" fill="#070707"></path> <rect id="長方形_20469" data-name="長方形 20469" width="1.7" height="1.7" transform="translate(83.445 48.472) rotate(-45)" fill="#070707"></rect> <rect id="長方形_20470" data-name="長方形 20470" width="1.7" height="1.7" transform="translate(28.067 48.451) rotate(-45)" fill="#070707"></rect> </g> </svg>